<mxfile host="app.diagrams.net" agent="Mozilla/5.0 (Macintosh; Intel Mac OS X 10_15_7) AppleWebKit/537.36 (KHTML, like Gecko) Chrome/133.0.0.0 Safari/537.36" version="26.1.0">
  <diagram name="第 1 页" id="u2ZYGATizKm6xQsP-2OM">
    <mxGraphModel dx="489" dy="315" grid="1" gridSize="10" guides="1" tooltips="1" connect="1" arrows="1" fold="1" page="1" pageScale="1" pageWidth="827" pageHeight="1169" math="0" shadow="0">
      <root>
        <mxCell id="0" />
        <mxCell id="1" parent="0" />
        <mxCell id="wBGA1w_mhBOcf0kR2aSs-69" value="&lt;font style=&quot;font-size: 6px;&quot;&gt;批处理请求&lt;/font&gt;" style="text;html=1;align=center;verticalAlign=middle;whiteSpace=wrap;rounded=0;" parent="1" vertex="1">
          <mxGeometry x="270.75" y="682.5" width="34.5" height="10.5" as="geometry" />
        </mxCell>
        <mxCell id="wBGA1w_mhBOcf0kR2aSs-70" value="" style="shape=actor;whiteSpace=wrap;html=1;" parent="1" vertex="1">
          <mxGeometry x="256.75" y="700.25" width="10" height="20" as="geometry" />
        </mxCell>
        <mxCell id="wBGA1w_mhBOcf0kR2aSs-78" value="" style="shape=cube;whiteSpace=wrap;html=1;boundedLbl=1;backgroundOutline=1;darkOpacity=0.05;darkOpacity2=0.1;size=9;rotation=0;movable=1;resizable=1;rotatable=1;deletable=1;editable=1;locked=0;connectable=1;" parent="1" vertex="1">
          <mxGeometry x="309.5" y="600" width="74.25" height="100" as="geometry" />
        </mxCell>
        <mxCell id="wBGA1w_mhBOcf0kR2aSs-79" value="&lt;font style=&quot;font-size: 10px;&quot;&gt;e&lt;sub&gt;1&lt;/sub&gt;&lt;/font&gt;" style="text;html=1;align=center;verticalAlign=middle;resizable=1;points=[];autosize=1;strokeColor=none;fillColor=none;movable=1;rotatable=1;deletable=1;editable=1;locked=0;connectable=1;" parent="1" vertex="1">
          <mxGeometry x="342.75" y="605" width="17.5" height="20" as="geometry" />
        </mxCell>
        <mxCell id="wBGA1w_mhBOcf0kR2aSs-80" value="" style="strokeWidth=1;html=1;shape=mxgraph.flowchart.database;whiteSpace=wrap;movable=1;resizable=1;rotatable=1;deletable=1;editable=1;locked=0;connectable=1;" parent="1" vertex="1">
          <mxGeometry x="327.5" y="678.25" width="13.5" height="12.5" as="geometry" />
        </mxCell>
        <mxCell id="wBGA1w_mhBOcf0kR2aSs-81" value="&lt;font style=&quot;font-size: 6px;&quot;&gt;DB&lt;/font&gt;" style="text;html=1;align=center;verticalAlign=middle;whiteSpace=wrap;rounded=0;movable=1;resizable=1;rotatable=1;deletable=1;editable=1;locked=0;connectable=1;" parent="1" vertex="1">
          <mxGeometry x="322" y="687.5" width="24.5" height="10.5" as="geometry" />
        </mxCell>
        <mxCell id="wBGA1w_mhBOcf0kR2aSs-82" value="" style="rounded=1;whiteSpace=wrap;html=1;fillColor=#dae8fc;strokeColor=#6c8ebf;movable=1;resizable=1;rotatable=1;deletable=1;editable=1;locked=0;connectable=1;" parent="1" vertex="1">
          <mxGeometry x="364.5" y="679.5" width="12" height="10" as="geometry" />
        </mxCell>
        <mxCell id="wBGA1w_mhBOcf0kR2aSs-90" value="" style="endArrow=classic;html=1;rounded=0;entryX=1;entryY=0.5;entryDx=0;entryDy=0;entryPerimeter=0;endSize=1;startSize=3;dashed=1;" parent="1" target="wBGA1w_mhBOcf0kR2aSs-80" edge="1">
          <mxGeometry width="50" height="50" relative="1" as="geometry">
            <mxPoint x="356.5" y="684" as="sourcePoint" />
            <mxPoint x="426.5" y="754" as="targetPoint" />
          </mxGeometry>
        </mxCell>
        <mxCell id="wBGA1w_mhBOcf0kR2aSs-91" value="" style="endArrow=classic;html=1;rounded=0;entryX=0.082;entryY=0.446;entryDx=0;entryDy=0;entryPerimeter=0;endSize=1;jumpSize=2;edgeStyle=orthogonalEdgeStyle;curved=1;" parent="1" edge="1">
          <mxGeometry width="50" height="50" relative="1" as="geometry">
            <mxPoint x="270.5" y="707.5" as="sourcePoint" />
            <mxPoint x="326.5" y="684.5" as="targetPoint" />
            <Array as="points">
              <mxPoint x="270.5" y="697" />
              <mxPoint x="306.5" y="697" />
              <mxPoint x="306.5" y="685" />
            </Array>
          </mxGeometry>
        </mxCell>
        <mxCell id="wBGA1w_mhBOcf0kR2aSs-92" value="" style="sketch=0;points=[[0,0,0],[0.25,0,0],[0.5,0,0],[0.75,0,0],[1,0,0],[0,1,0],[0.25,1,0],[0.5,1,0],[0.75,1,0],[1,1,0],[0,0.25,0],[0,0.5,0],[0,0.75,0],[1,0.25,0],[1,0.5,0],[1,0.75,0]];outlineConnect=0;fillColor=#f8cecc;strokeColor=#b85450;dashed=0;verticalLabelPosition=bottom;verticalAlign=top;align=center;html=1;fontSize=12;fontStyle=0;aspect=fixed;shape=mxgraph.aws4.resourceIcon;resIcon=mxgraph.aws4.mq;" parent="1" vertex="1">
          <mxGeometry x="325" y="631" width="19" height="19" as="geometry" />
        </mxCell>
        <mxCell id="wBGA1w_mhBOcf0kR2aSs-93" value="" style="endArrow=openThin;html=1;rounded=0;endFill=0;endSize=3;dashed=1;edgeStyle=orthogonalEdgeStyle;entryX=0.5;entryY=1;entryDx=0;entryDy=0;entryPerimeter=0;exitX=0.5;exitY=0;exitDx=0;exitDy=0;" parent="1" source="wBGA1w_mhBOcf0kR2aSs-82" target="wBGA1w_mhBOcf0kR2aSs-92" edge="1">
          <mxGeometry width="50" height="50" relative="1" as="geometry">
            <mxPoint x="365" y="665.5" as="sourcePoint" />
            <mxPoint x="333" y="646" as="targetPoint" />
            <Array as="points">
              <mxPoint x="370.75" y="670" />
              <mxPoint x="334.75" y="670" />
            </Array>
          </mxGeometry>
        </mxCell>
        <mxCell id="wBGA1w_mhBOcf0kR2aSs-94" value="&lt;font style=&quot;font-size: 6px;&quot;&gt;MQ&lt;/font&gt;" style="text;html=1;align=center;verticalAlign=middle;whiteSpace=wrap;rounded=0;movable=1;resizable=1;rotatable=1;deletable=1;editable=1;locked=0;connectable=1;" parent="1" vertex="1">
          <mxGeometry x="322" y="617.5" width="24.5" height="10.5" as="geometry" />
        </mxCell>
        <mxCell id="wBGA1w_mhBOcf0kR2aSs-95" value="&amp;lt;/&amp;gt;" style="rounded=1;arcSize=5;fillColor=#666666;strokeColor=none;fontColor=#ffffff;align=center;verticalAlign=middle;whiteSpace=wrap;fontSize=10;fontStyle=1;html=1;sketch=0;" parent="1" vertex="1">
          <mxGeometry x="362" y="631.8199999999999" width="17.5" height="17.37" as="geometry" />
        </mxCell>
        <mxCell id="wBGA1w_mhBOcf0kR2aSs-96" value="" style="endArrow=openThin;html=1;rounded=0;endFill=0;endSize=3;dashed=1;edgeStyle=orthogonalEdgeStyle;entryX=0;entryY=0.5;entryDx=0;entryDy=0;exitX=1;exitY=0.5;exitDx=0;exitDy=0;exitPerimeter=0;" parent="1" source="wBGA1w_mhBOcf0kR2aSs-92" target="wBGA1w_mhBOcf0kR2aSs-95" edge="1">
          <mxGeometry width="50" height="50" relative="1" as="geometry">
            <mxPoint x="375" y="675.5" as="sourcePoint" />
            <mxPoint x="344.5" y="660" as="targetPoint" />
            <Array as="points">
              <mxPoint x="344.5" y="640" />
              <mxPoint x="344.5" y="640" />
            </Array>
          </mxGeometry>
        </mxCell>
        <mxCell id="wBGA1w_mhBOcf0kR2aSs-97" value="" style="verticalLabelPosition=bottom;verticalAlign=top;html=1;shape=mxgraph.basic.diag_round_rect;dx=6;whiteSpace=wrap;container=0;" parent="1" vertex="1">
          <mxGeometry x="359.75" y="706.25" width="18" height="20" as="geometry" />
        </mxCell>
        <mxCell id="wBGA1w_mhBOcf0kR2aSs-98" value="" style="image;html=1;image=img/lib/clip_art/networking/Ip_Camera_128x128.png;container=0;" parent="1" vertex="1">
          <mxGeometry x="367.25" y="713.39" width="16.5" height="12.86" as="geometry" />
        </mxCell>
        <mxCell id="wBGA1w_mhBOcf0kR2aSs-99" value="" style="endArrow=classic;html=1;rounded=0;entryX=0.5;entryY=1;entryDx=0;entryDy=0;endSize=1;startSize=3;dashed=1;exitX=0.59;exitY=-0.018;exitDx=0;exitDy=0;exitPerimeter=0;" parent="1" source="wBGA1w_mhBOcf0kR2aSs-97" target="wBGA1w_mhBOcf0kR2aSs-82" edge="1">
          <mxGeometry width="50" height="50" relative="1" as="geometry">
            <mxPoint x="366.5" y="694" as="sourcePoint" />
            <mxPoint x="350.75" y="695" as="targetPoint" />
          </mxGeometry>
        </mxCell>
        <mxCell id="wBGA1w_mhBOcf0kR2aSs-100" value="&lt;span style=&quot;font-family: &amp;quot;Microsoft Yahei&amp;quot;, Helvetica, Arial, sans-serif; text-align: start; text-wrap-mode: wrap; background-color: rgb(255, 255, 255);&quot;&gt;&lt;font style=&quot;font-size: 6px; color: rgb(0, 0, 0);&quot;&gt;①&lt;/font&gt;&lt;/span&gt;" style="text;html=1;align=center;verticalAlign=middle;resizable=0;points=[];autosize=1;strokeColor=none;fillColor=none;" parent="1" vertex="1">
          <mxGeometry x="340.25" y="617.37" width="30" height="30" as="geometry" />
        </mxCell>
        <mxCell id="wBGA1w_mhBOcf0kR2aSs-101" value="&lt;span style=&quot;font-family: &amp;quot;Microsoft Yahei&amp;quot;, Helvetica, Arial, sans-serif; text-align: start; text-wrap-mode: wrap; background-color: rgb(255, 255, 255);&quot;&gt;&lt;font style=&quot;font-size: 6px; color: rgb(0, 0, 0);&quot;&gt;②&lt;/font&gt;&lt;/span&gt;" style="text;html=1;align=center;verticalAlign=middle;resizable=0;points=[];autosize=1;strokeColor=none;fillColor=none;" parent="1" vertex="1">
          <mxGeometry x="385.75" y="665" width="30" height="30" as="geometry" />
        </mxCell>
        <mxCell id="wBGA1w_mhBOcf0kR2aSs-102" value="" style="group" parent="1" vertex="1" connectable="0">
          <mxGeometry x="414" y="649" width="49.5" height="70" as="geometry" />
        </mxCell>
        <mxCell id="wBGA1w_mhBOcf0kR2aSs-103" value="" style="shape=cube;whiteSpace=wrap;html=1;boundedLbl=1;backgroundOutline=1;darkOpacity=0.05;darkOpacity2=0.1;size=9;rotation=0;movable=1;resizable=1;rotatable=1;deletable=1;editable=1;locked=0;connectable=1;" parent="wBGA1w_mhBOcf0kR2aSs-102" vertex="1">
          <mxGeometry width="49.5" height="70" as="geometry" />
        </mxCell>
        <mxCell id="wBGA1w_mhBOcf0kR2aSs-104" value="&lt;span style=&quot;font-size: 10px;&quot;&gt;e&lt;sub&gt;2&lt;/sub&gt;&lt;/span&gt;" style="text;html=1;align=center;verticalAlign=middle;resizable=1;points=[];autosize=1;strokeColor=none;fillColor=none;movable=1;rotatable=1;deletable=1;editable=1;locked=0;connectable=1;" parent="wBGA1w_mhBOcf0kR2aSs-102" vertex="1">
          <mxGeometry x="13.75" y="2.6299999999999955" width="30" height="30" as="geometry" />
        </mxCell>
        <mxCell id="wBGA1w_mhBOcf0kR2aSs-105" value="&amp;lt;/&amp;gt;" style="rounded=1;arcSize=5;fillColor=#666666;strokeColor=none;fontColor=#ffffff;align=center;verticalAlign=middle;whiteSpace=wrap;fontSize=10;fontStyle=1;html=1;sketch=0;" parent="wBGA1w_mhBOcf0kR2aSs-102" vertex="1">
          <mxGeometry x="20" y="32.62999999999988" width="17.5" height="17.37" as="geometry" />
        </mxCell>
        <mxCell id="wBGA1w_mhBOcf0kR2aSs-106" value="" style="endArrow=openThin;html=1;rounded=0;endFill=0;endSize=3;dashed=1;edgeStyle=orthogonalEdgeStyle;entryX=0;entryY=0.5;entryDx=0;entryDy=0;exitX=1;exitY=0.5;exitDx=0;exitDy=0;exitPerimeter=0;" parent="1" source="wBGA1w_mhBOcf0kR2aSs-92" target="wBGA1w_mhBOcf0kR2aSs-105" edge="1">
          <mxGeometry width="50" height="50" relative="1" as="geometry">
            <mxPoint x="353.75" y="650" as="sourcePoint" />
            <mxPoint x="364.75" y="651" as="targetPoint" />
            <Array as="points">
              <mxPoint x="353.75" y="640" />
              <mxPoint x="353.75" y="660" />
              <mxPoint x="393.75" y="660" />
              <mxPoint x="393.75" y="690" />
              <mxPoint x="413.75" y="690" />
            </Array>
          </mxGeometry>
        </mxCell>
        <mxCell id="wBGA1w_mhBOcf0kR2aSs-107" value="" style="html=1;verticalLabelPosition=bottom;align=center;labelBackgroundColor=#ffffff;verticalAlign=top;strokeWidth=1;strokeColor=#000000;shadow=0;dashed=0;shape=mxgraph.ios7.icons.cloud;" parent="1" vertex="1">
          <mxGeometry x="399.75" y="590" width="80" height="48" as="geometry" />
        </mxCell>
        <mxCell id="wBGA1w_mhBOcf0kR2aSs-108" value="&lt;font style=&quot;font-size: 10px;&quot;&gt;c&lt;sub&gt;1&lt;/sub&gt;&lt;/font&gt;" style="rounded=1;whiteSpace=wrap;html=1;" parent="1" vertex="1">
          <mxGeometry x="424.75" y="608.82" width="31" height="23" as="geometry" />
        </mxCell>
        <mxCell id="wBGA1w_mhBOcf0kR2aSs-109" value="" style="endArrow=openThin;html=1;rounded=0;endFill=0;endSize=3;dashed=1;edgeStyle=orthogonalEdgeStyle;entryX=0;entryY=0.5;entryDx=0;entryDy=0;" parent="1" target="wBGA1w_mhBOcf0kR2aSs-108" edge="1">
          <mxGeometry width="50" height="50" relative="1" as="geometry">
            <mxPoint x="343.75" y="640" as="sourcePoint" />
            <mxPoint x="444.75" y="682" as="targetPoint" />
            <Array as="points">
              <mxPoint x="353.75" y="640" />
              <mxPoint x="353.75" y="660" />
              <mxPoint x="393.75" y="660" />
              <mxPoint x="393.75" y="620" />
              <mxPoint x="424.75" y="620" />
            </Array>
          </mxGeometry>
        </mxCell>
        <mxCell id="wBGA1w_mhBOcf0kR2aSs-110" value="&lt;span style=&quot;font-family: &amp;quot;Microsoft Yahei&amp;quot;, Helvetica, Arial, sans-serif; font-style: normal; font-variant-ligatures: normal; font-variant-caps: normal; font-weight: 400; letter-spacing: normal; orphans: 2; text-align: start; text-indent: 0px; text-transform: none; widows: 2; word-spacing: 0px; -webkit-text-stroke-width: 0px; white-space: normal; background-color: rgb(255, 255, 255); text-decoration-thickness: initial; text-decoration-style: initial; text-decoration-color: initial; float: none; display: inline !important;&quot;&gt;&lt;font style=&quot;font-size: 6px; color: rgb(0, 0, 0);&quot;&gt;③&lt;/font&gt;&lt;/span&gt;" style="text;whiteSpace=wrap;html=1;" parent="1" vertex="1">
          <mxGeometry x="391.25" y="598" width="50" height="40" as="geometry" />
        </mxCell>
        <mxCell id="wBGA1w_mhBOcf0kR2aSs-111" value="&lt;span style=&quot;font-family: &amp;quot;Microsoft Yahei&amp;quot;, Helvetica, Arial, sans-serif; font-size: 6px; background-color: rgb(255, 255, 255);&quot;&gt;流处理&lt;/span&gt;" style="text;whiteSpace=wrap;html=1;" parent="1" vertex="1">
          <mxGeometry x="342" y="610.88" width="28" height="16.25" as="geometry" />
        </mxCell>
        <mxCell id="ip4ullJNMSyPQEkOMLN9-4" value="" style="rounded=1;whiteSpace=wrap;html=1;fillColor=#dae8fc;strokeColor=#6c8ebf;container=0;fontStyle=1" vertex="1" parent="1">
          <mxGeometry x="384.63" y="732.34" width="12" height="10" as="geometry" />
        </mxCell>
        <mxCell id="ip4ullJNMSyPQEkOMLN9-5" value="&lt;font style=&quot;font-size: 6px;&quot;&gt;设备适配器&lt;/font&gt;" style="text;html=1;align=center;verticalAlign=middle;whiteSpace=wrap;rounded=0;fontStyle=1" vertex="1" parent="1">
          <mxGeometry x="391.38" y="731.84" width="51.5" height="10.5" as="geometry" />
        </mxCell>
        <mxCell id="ip4ullJNMSyPQEkOMLN9-6" value="" style="rounded=1;whiteSpace=wrap;html=1;fontStyle=1" vertex="1" parent="1">
          <mxGeometry x="270.13" y="732.4300000000001" width="16.5" height="9.5" as="geometry" />
        </mxCell>
        <mxCell id="ip4ullJNMSyPQEkOMLN9-7" value="&lt;font style=&quot;font-size: 6px;&quot;&gt;云层节点&lt;/font&gt;" style="text;html=1;align=center;verticalAlign=middle;whiteSpace=wrap;rounded=0;fontStyle=1" vertex="1" parent="1">
          <mxGeometry x="284.63" y="732.1800000000001" width="37" height="10.5" as="geometry" />
        </mxCell>
        <mxCell id="ip4ullJNMSyPQEkOMLN9-8" value="" style="shape=image;verticalLabelPosition=bottom;labelBackgroundColor=default;verticalAlign=top;aspect=fixed;imageAspect=0;image=data:image/png,iVBORw0KGgoAAAANSUhEUgAAARwAAAFECAYAAAD1KYF6AAAAAXNSR0IArs4c6QAADolJREFUeF7t3U2S3dYVBOHmOrhLcaSR5ZFG1C65jrYYkoNqNUm8n8IFTuFThEfGK1xkAhltD+wPL/5BAAEEFhH4sOg+boMAAgi8CI6XAAEElhEQnGWo3QgBBATHO4AAAssICM4y1G6EAAKC4x1AAIFlBARnGWo3QgABwfEOIIDAMgKCswy1GyGAgOB4BxBAYBkBwVmG2o0QQEBwvAMIILCMgOAsQ+1GCCAgON4BBBBYRkBwlqF2IwQQEBzvAAIILCMgOMtQuxECCAiOdwABBJYREJxlqN0IAQQExzuAAALLCAjOMtRuhAACguMdQACBZQQEZxlqN0IAAcHxDiCAwDICgrMMtRshgIDgeAcQQGAZAcFZhtqNEEBAcLwDCCCwjIDgLEPtRgggIDjeAQQQWEZAcJahdiMEEBAc7wACCCwjIDjLULsRAggIjncAAQSWERCcZajdCAEEBMc7gAACywgIzjLUboQAAoLjHUAAgWUEBGcZajdCAIEJwXmlCYGTEPjvn+f47SRnGXkMwRmpzaEPJCA6T8AXnCfg+ellCYjOg+oF50FwfnZ5AqLzwCswOji//vrry9d/+QeBPQn8/vvvL1//9Z1/ROdO8KOD8/VZRedO4y5/iIDoPITt3Y/GB0d0Mi+ClW0CorPNaOuKccH59OnTy+fPn989l790tlT79xMEROc5iuOC8+XLl5c//vhDdJ7z7tdPEBCdx+GNDM7XxxWdx6X75fMEROcxhmODIzqPCferHAHRuZ/l6OCIzv3C/SJLQHTu4zk+OKJzn3BX5wmIzu1MK4IjOrcLd+U+BETnNq41wRGd24S7aj8CorPNtio4orMt3BX7EhCdn/OtC47o7PtBWd8mIDo/ZlQZHNHZ/ihcsS8B0fk+39rgiM6+H5T1bQKi855RdXBEZ/ujcMW+BETnLd/64IjOvh+U9W0CovON0SWCIzrbH4Ur9iUgOn/xvUxwRGffD8r6NgHRuVhwRGf7o3DFvgSuHp1L/YXz/1fJ/7TFvh+V9Z8TuHJ0Lhkcf+lIwtEErhqdywZHdI7+5Nz/itG5dHBEx0d/NIGrRefywRGdoz85979SdATn7/fdf5Hswz+SwFWiIzj/eMtE58hPzr2vEB3B+dd7Ljo+/CMJtEdHcL7zdonOkZ+cezdHR3B+8H6Ljg//SAKt0RGcn7xVonPkJ+fejdERnI33WnR8+EcSaIuO4NzwNonODZBcshuBpugIzo2viejcCMpluxBoiY7g3PF6iM4dsFwaJ9AQHcG587UQnTuBuTxKYHp0BOeB1+FH0Xlgyk8QSBL4759jvyUH01uC8yBR0XkQnJ/tTeDU3/SpD/e3mdd/Gvry5cvewm7eF52bUblwHYFTf9OnPtzZg/P1fB8/flz3KrkTAtsETv1Nn/pwE4Pz+vrmD7Lt18MVCDxB4MOHd5/wqb/pUx9OcJ54E/30EgQEJ6/5tP8dzvf+I5W/cPIvgMUfExCc/NshOHmmFksICE5epODkmVosISA4eZGCk2dqsYSA4ORFCk6eqcUSAoKTFyk4eaYWSwgITl6k4OSZWiwhIDh5kYKTZ2qxhIDg5EUKTp6pxRICgpMXKTh5phZLCAhOXqTg5JlaLCEgOHmRgpNnarGEgODkRQpOnqnFEgKCkxcpOHmmFksICE5epODkmVosISA4eZGCk2dqsYSA4ORFCk6eqcUSAoKTFyk4eaYWSwgITl6k4OSZWiwhIDh5kYKTZ2qxhIDg5EUKTp6pxRICgpMXKTh5phZLCAhOXqTg5JlaLCEgOHmRgpNnarGEgODkRQpOnqnFEgKCkxcpOHmmFksICE5epODkmVosISA4eZGCk2dqsYSA4ORFCk6eqcUSAoKTFyk4eaYWSwgITl6k4OSZWiwhIDh5kYKTZ2qxhIDg5EUKTp6pxRICgpMXKTh5phZLCAhOXqTg5JlaLCEgOHmRgpNnarGEgODkRQpOnqnFEgKCkxcpOHmmFksICE5epODkmVosISA4eZGCk2dqsYSA4ORFCk6eqcUSAoKTFyk4eaYWSwgITl6k4OSZWiwhIDh5kYKTZ2qxhIDg5EUKTp6pxRICgpMXKTh5phZLCAhOXqTg5JlaLCEgOHmRgpNnarGEgODkRQpOnqnFEgKCkxcpOHmmFksICE5epODkmVosISA4eZGCk2dqsYSA4ORFCk6eqcUSAoKTFyk4eaYWSwgITl6k4OSZWiwhIDh5kYKTZ2qxhIDg5EUKTp6pxRICgpMXKTh5phZLCAhOXqTg5JlaLCEgOHmRgpNnarGEgODkRQpOnqnFEgKCkxcpOHmmFksICE5epODkmVosISA4eZGCk2dqsYSA4ORFCk6eqcUSAoKTFyk4eaYWSwgITl6k4OSZWiwhIDh5kYKTZ2qxhIDg5EUKTp6pxRICgpMXKTh5phZLCAhOXqTg5JlaLCEgOHmRgpNnarGEgODkRQpOnqnFEgKCkxcpOHmmFksICE5epODkmVosISA4eZGCk2dqsYSA4ORFCk6eqcUSAoKTFyk4eaYWSwgITl6k4OSZWiwhIDh5kYKTZ2qxhIDg5EUKTp6pxRICgpMXKTh5phZLCAhOXqTg5JlaLCEgOHmRgpNnarGEgODkRQpOnqnFEgKCkxcpOHmmFksICE5epODkmVosISA4eZGCk2dqsYSA4ORFCk6eqcUSAoKTFyk4eaYWSwgITl6k4OSZWiwhIDh5kYKTZ2qxhIDg5EUKTp6pxRICgpMXKTh5phZLCAhOXqTg5JlaLCEgOHmRgpNnarGEgODkRQpOnqnFEgKCkxcpOHmmFksICE5epODkmVosISA4eZGCk2dqsYSA4ORFCk6eqcUSAoKTFyk4eaYWSwgITl6k4OSZWiwhIDh5kYKTZ2qxhIDg5EUKTp6pxRICgpMXKTh5phZLCAhOXqTg5JlaLCEgOHmRgpNnarGEgODkRQpOnqnFEgKCkxcpOHmmFksICE5epODkmVosISA4eZGCk2dqsYSA4ORFCk6eqcUSAoKTFyk4eaYWSwgITl6k4OSZWiwhIDh5kYKTZ2qxhIDg5EUKTp6pxRICgpMXKTh5phZLCAhOXqTg5JlaLCEgOHmRgpNnarGEgODkRQpOnqnFEgKCkxcpOHmmFksICE5epODkmVosISA4eZGCk2dqsYSA4ORFCk6eqcUSAoKTFyk4eaYWSwgITl6k4OSZWiwhIDh5kYKTZ2qxhIDg5EUKTp6pxRICgpMXKTh5phZLCAhOXqTg5JlaLCEgOHmRgpNnarGEgODkRQpOnqnFEgKCkxcpOHmmFksICE5epODkmVosISA4eZGCk2dqsYSA4ORFCk6eqcUSAoKTFyk4eaYWSwgITl6k4OSZWiwhIDh5kYKTZ2qxhIDg5EUKTp6pxRICgpMXKTh5phZLCAhOXqTg5JlaLCEgOHmRgpNnarGEgODkRQpOnqnFEgKCkxcpOHmmFksICE5epODkmVosISA4eZGCk2dqsYSA4ORFCk6eqcUSAoKTFyk4eaYWSwgITl6k4OSZWiwhIDh5kYKTZ2qxhIDg5EUKTp6pxRICgpMXKTh5phZLCAhOXqTg5JlaLCEgOHmRb4Lz6dOnl19++SV/lwcXP378+OaXr69vjvvgqp8hcBsBwbmN0z1XvfuCzxQdwblHpWvTBAQnTfTl5beXl5f//Hv2LNERnLxwi7cTEJzbWd1z5WmjIzj3aHRtmoDgpIl+2ztldARnP+GWtwkIzjajZ644XXQE5xmdfvssAcF5luD2708VHcHZFuaK/QgIzn5s/7l8mugIzhrh7vJ9AoKz7s04RXQEZ51wd3pPQHDWvhWHR0dw1gp3t7cEBGf9G3FodARnvXB3/EZAcI55Gw6LjuAcI9xd/yIgOMe9CYdER3COE+7OgnP0O7A8OoJztPJr399fOMf7XxodwTle+JVPIDjnsL8sOoJzDuFXPYXgnMf8kugIznmEX/EkgnMu67tHR3DOJfxqpxGc8xnfNTqCcz7hVzqR4JzT9m7REZxzCr/KqQTnvKZ3iY7gnFf4FU4mOOe2HI+O4JxbePvpBOf8hqPREZzzC28+oeDMsBuLjuDMEN56SsGZYzYSHcGZI7zxpIIzy+rT0RGcWcLbTis484w+FR3BmSe86cSCM9Pmw9ERnJnCW04tOHNNPhQdwZkrvOHkgjPb4t3REZzZwqefXnCmG7zz/8tccOYLn/wEgjPZ3rez3/yXjuB0CJ/6FIIz1dz7c98UHcHpET7xSQRnorUfn3kzOoLTJXza0wjONGPb5/1pdARnG6Ar9iMgOPuxPXL5h9H5/Pnzm3O9vr4eeU73vhgBwekV/t3o/PtxBaf3BTjjkwnOGa3kzrQZHcHJwba0TUBwthlNv+Kn0RGc6XpnnV9wZvl69LSbf+k8Oux3CDxJ4MOTv9/156c+3K5P/vy46DzP0EKewKm/6VMfLu8ivig6caQGnyRw6m/61Id7Evyqn4vOKtLucwuBU3/Tpz7cLXRdgwACcwgIzhxXTorAeAKCM16hB0BgDgHBmePKSREYT0Bwxiv0AAjMISA4c1w5KQLjCQjOeIUeAIE5BARnjisnRWA8AcEZr9ADIDCHgODMceWkCIwnIDjjFXoABOYQEJw5rpwUgfEEBGe8Qg+AwBwCgjPHlZMiMJ6A4IxX6AEQmENAcOa4clIExhMQnPEKPQACcwgIzhxXTorAeAKCM16hB0BgDgHBmePKSREYT0Bwxiv0AAjMISA4c1w5KQLjCQjOeIUeAIE5BARnjisnRWA8AcEZr9ADIDCHgODMceWkCIwnIDjjFXoABOYQEJw5rpwUgfEEBGe8Qg+AwBwCgjPHlZMiMJ6A4IxX6AEQmENAcOa4clIExhMQnPEKPQACcwgIzhxXTorAeAKCM16hB0BgDgHBmePKSREYT0Bwxiv0AAjMISA4c1w5KQLjCQjOeIUeAIE5BARnjisnRWA8gf8BrBRdri7OPKMAAAAASUVORK5CYII=;" vertex="1" parent="1">
          <mxGeometry x="326.63" y="728.25" width="15.5" height="17.68" as="geometry" />
        </mxCell>
        <mxCell id="ip4ullJNMSyPQEkOMLN9-9" value="&lt;font style=&quot;font-size: 6px;&quot;&gt;边缘端节点&lt;/font&gt;" style="text;html=1;align=center;verticalAlign=middle;whiteSpace=wrap;rounded=0;fontStyle=1" vertex="1" parent="1">
          <mxGeometry x="340.88" y="731.9300000000001" width="37" height="10.5" as="geometry" />
        </mxCell>
        <mxCell id="ip4ullJNMSyPQEkOMLN9-10" value="" style="strokeWidth=1;html=1;shape=mxgraph.flowchart.database;whiteSpace=wrap;fontStyle=1" vertex="1" parent="1">
          <mxGeometry x="439.88" y="730.92" width="13.5" height="12.5" as="geometry" />
        </mxCell>
        <mxCell id="ip4ullJNMSyPQEkOMLN9-11" value="&lt;font style=&quot;font-size: 6px;&quot;&gt;数据库&lt;/font&gt;" style="text;html=1;align=center;verticalAlign=middle;whiteSpace=wrap;rounded=0;fontStyle=1" vertex="1" parent="1">
          <mxGeometry x="453.63" y="733.3" width="23.75" height="6.75" as="geometry" />
        </mxCell>
        <mxCell id="ip4ullJNMSyPQEkOMLN9-12" value="" style="verticalLabelPosition=bottom;verticalAlign=top;html=1;shape=mxgraph.basic.diag_round_rect;dx=6;whiteSpace=wrap;fontStyle=1" vertex="1" parent="1">
          <mxGeometry x="274.13" y="747.25" width="8" height="11.07" as="geometry" />
        </mxCell>
        <mxCell id="ip4ullJNMSyPQEkOMLN9-13" value="&lt;font style=&quot;font-size: 6px;&quot;&gt;设备&lt;/font&gt;" style="text;html=1;align=center;verticalAlign=middle;whiteSpace=wrap;rounded=0;fontStyle=1" vertex="1" parent="1">
          <mxGeometry x="285.13" y="750.28" width="24" height="6.75" as="geometry" />
        </mxCell>
        <mxCell id="ip4ullJNMSyPQEkOMLN9-14" value="" style="sketch=0;points=[[0,0,0],[0.25,0,0],[0.5,0,0],[0.75,0,0],[1,0,0],[0,1,0],[0.25,1,0],[0.5,1,0],[0.75,1,0],[1,1,0],[0,0.25,0],[0,0.5,0],[0,0.75,0],[1,0.25,0],[1,0.5,0],[1,0.75,0]];outlineConnect=0;fillColor=#f8cecc;strokeColor=#b85450;dashed=0;verticalLabelPosition=bottom;verticalAlign=top;align=center;html=1;fontSize=12;fontStyle=0;aspect=fixed;shape=mxgraph.aws4.resourceIcon;resIcon=mxgraph.aws4.mq;" vertex="1" parent="1">
          <mxGeometry x="327.81" y="747.5" width="12.32" height="12.32" as="geometry" />
        </mxCell>
        <mxCell id="ip4ullJNMSyPQEkOMLN9-15" value="&lt;font style=&quot;font-size: 6px;&quot;&gt;消息队列&lt;/font&gt;" style="text;html=1;align=center;verticalAlign=middle;whiteSpace=wrap;rounded=0;fontStyle=1" vertex="1" parent="1">
          <mxGeometry x="337.63" y="747.82" width="37" height="10.5" as="geometry" />
        </mxCell>
        <mxCell id="ip4ullJNMSyPQEkOMLN9-16" value="&amp;lt;/&amp;gt;" style="rounded=1;arcSize=5;fillColor=#666666;strokeColor=none;fontColor=#ffffff;align=center;verticalAlign=middle;whiteSpace=wrap;fontSize=10;fontStyle=1;html=1;sketch=0;" vertex="1" parent="1">
          <mxGeometry x="382.63" y="747.25" width="16" height="12.84" as="geometry" />
        </mxCell>
        <mxCell id="ip4ullJNMSyPQEkOMLN9-17" value="&lt;font style=&quot;font-size: 6px;&quot;&gt;工作负载&lt;/font&gt;" style="text;html=1;align=center;verticalAlign=middle;whiteSpace=wrap;rounded=0;fontStyle=1" vertex="1" parent="1">
          <mxGeometry x="395.63" y="748.2500000000001" width="37" height="10.5" as="geometry" />
        </mxCell>
        <mxCell id="ip4ullJNMSyPQEkOMLN9-18" value="" style="shape=actor;whiteSpace=wrap;html=1;" vertex="1" parent="1">
          <mxGeometry x="441.63" y="748.75" width="10" height="10" as="geometry" />
        </mxCell>
        <mxCell id="ip4ullJNMSyPQEkOMLN9-19" value="&lt;font style=&quot;font-size: 6px;&quot;&gt;用户&lt;/font&gt;" style="text;html=1;align=center;verticalAlign=middle;whiteSpace=wrap;rounded=0;fontStyle=1" vertex="1" parent="1">
          <mxGeometry x="453" y="747.5" width="19.38" height="10.5" as="geometry" />
        </mxCell>
      </root>
    </mxGraphModel>
  </diagram>
</mxfile>
